<?xml version="1.0" encoding="UTF-8" standalone="no"?><!DOCTYPE svg PUBLIC "-//W3C//DTD SVG 1.1//EN" "http://www.w3.org/Graphics/SVG/1.1/DTD/svg11.dtd"><svg width="100%" height="100%" viewBox="0 0 4979 2240" version="1.1" xmlns="http://www.w3.org/2000/svg" xmlns:xlink="http://www.w3.org/1999/xlink" xml:space="preserve" xmlns:serif="http://www.serif.com/" style="fill-rule:evenodd;clip-rule:evenodd;stroke-linejoin:round;stroke-miterlimit:2;"><rect id="Page-2" serif:id="Page 2" x="0" y="0" width="4978.75" height="2239.412" style="fill:none;"/><g id="Layer-1" serif:id="Layer 1"><text x="1844.596px" y="984.882px" style="font-family:'Montserrat-Medium', 'Montserrat';font-weight:500;font-size:543.896px;fill:#fff;">P<tspan x="2226.964px 2443.444px " y="984.882px 984.882px ">ro</tspan>duc<tspan x="3842.382px " y="984.882px ">t</tspan></text><text x="1844.596px" y="1549.99px" style="font-family:'Montserrat-Medium', 'Montserrat';font-weight:500;font-size:543.896px;fill:#fff;">A<tspan x="2240.009px 2550.574px 2877.455px " y="1549.99px 1549.99px 1549.99px ">cad</tspan>em<tspan x="4150.716px " y="1549.99px ">y</tspan></text><path d="M1601.638,1367.292c0,191.85 -349.754,316.171 -511.333,384.758c-161.583,-68.588 -511.337,-192.908 -511.337,-384.758l0,-752.083l452.038,-123.458c38.638,-10.554 79.954,-10.554 118.596,0l452.037,123.458l0,752.083Zm-457.408,-927.721c-35.283,-8.692 -72.571,-8.692 -107.854,0l-512.908,126.367l0,801.358c0,277.888 566.837,439.063 566.837,439.063c0,0 566.833,-161.175 566.833,-439.063l0,-801.358l-512.908,-126.367Z" style="fill:#fff;fill-rule:nonzero;"/><path d="M1124.569,1175.759l0,-56.225c0,-9.617 5.158,-18.5 13.517,-23.263l125.871,-71.742c6.771,-3.858 15.188,1.008 15.217,8.8l0.237,57.717c0.037,9.754 -5.229,18.758 -13.754,23.504l-125.958,70.1c-6.787,3.779 -15.129,-1.129 -15.129,-8.892m232.021,74.883l-232.021,135.35l0,-130.429c0,-4.421 2.408,-8.496 6.283,-10.625l181.221,-99.583c10.508,-5.371 17.004,-16.046 16.958,-27.842l-0.542,-133.333c-0.067,-11.021 -6.033,-21.283 -15.579,-26.792c-9.542,-5.504 -21.4,-5.55 -30.979,-0.088l-185.175,105.542c-13.379,7.621 -21.696,21.929 -21.696,37.333l0,294.342c-2.758,-0.975 -5.479,-2.112 -8.075,-3.592l-44.596,-25.483l0,-306.696c0,-13.121 7.025,-25.242 18.417,-31.763l189.033,-108.246c10.404,-5.958 15.9,-18.458 11.992,-29.792c-5.25,-15.229 -22.562,-21.188 -35.796,-13.633l-220.7,126.379c-7.708,4.421 -12.454,12.608 -12.454,21.488l0,313.975l-44.254,-25.287l0,-310.296c0,-13.125 7.021,-25.242 18.413,-31.767l189.033,-108.242c10.408,-5.958 15.904,-18.467 11.992,-29.804c-5.254,-15.221 -22.567,-21.167 -35.796,-13.621l-220.696,126.379c-7.708,4.417 -12.458,12.608 -12.458,21.483l0,317.575l-53.471,-30.554c-15.358,-8.775 -24.871,-25.075 -24.946,-42.762l-1.25,-277.963c-0.075,-17.688 9.283,-34.075 24.562,-42.988l240.1,-140.058c15.279,-8.913 34.154,-8.996 49.504,-0.221l241.346,137.9c15.358,8.779 24.871,25.079 24.946,42.767l1.25,277.962c0.075,17.688 -9.288,34.071 -24.567,42.983m-203.25,-727.112c-40.946,-11.963 -85.129,-11.963 -126.075,0l-414.996,121.237l0,722.525c0,163.983 304.633,275.85 478.033,351.888c173.396,-76.038 478.038,-187.904 478.038,-351.888l0,-722.525l-415,-121.237Z" style="fill:#fff;fill-rule:nonzero;"/></g></svg>