<?xml version="1.0" encoding="UTF-8" standalone="no"?><!DOCTYPE svg PUBLIC "-//W3C//DTD SVG 1.1//EN" "http://www.w3.org/Graphics/SVG/1.1/DTD/svg11.dtd"><svg width="100%" height="100%" viewBox="0 0 4979 2240" version="1.1" xmlns="http://www.w3.org/2000/svg" xmlns:xlink="http://www.w3.org/1999/xlink" xml:space="preserve" xmlns:serif="http://www.serif.com/" style="fill-rule:evenodd;clip-rule:evenodd;stroke-linejoin:round;stroke-miterlimit:2;"><rect id="Page-2" serif:id="Page 2" x="0" y="0" width="4978.75" height="2239.412" style="fill:none;"/><g id="Layer-1" serif:id="Layer 1"><g><path d="M2050.189,604.155c49.313,0 88.111,11.784 116.394,35.353c28.283,23.569 42.424,56.021 42.424,97.357c0,41.336 -14.141,73.789 -42.424,97.357c-28.283,23.569 -67.081,35.353 -116.394,35.353l-94.094,0l0,115.306l-54.39,0l0,-380.727l148.484,0Zm-1.632,218.102c34.447,0 60.735,-7.343 78.865,-22.028c18.13,-14.685 27.195,-35.806 27.195,-63.364c0,-27.557 -9.065,-48.679 -27.195,-63.364c-18.13,-14.685 -44.418,-22.028 -78.865,-22.028l-92.462,0l0,170.783l92.462,0Z" style="fill:#fff;"/><g><path d="M2326.497,745.024c9.065,-16.679 22.481,-29.37 40.248,-38.073c17.767,-8.702 39.342,-13.054 64.724,-13.054l0,50.582c-2.901,-0.363 -6.889,-0.544 -11.966,-0.544c-28.283,0 -50.492,8.43 -66.627,25.291c-16.136,16.861 -24.203,40.883 -24.203,72.066l0,143.589l-52.214,0l0,-288.265l50.038,0l0,48.407Z" style="fill:#fff;"/><path d="M2616.403,988.145c-28.645,0 -54.39,-6.345 -77.233,-19.036c-22.844,-12.691 -40.702,-30.186 -53.574,-52.486c-12.872,-22.3 -19.308,-47.591 -19.308,-75.873c0,-28.283 6.436,-53.574 19.308,-75.873c12.872,-22.3 30.73,-39.704 53.574,-52.214c22.844,-12.51 48.588,-18.764 77.233,-18.764c28.645,0 54.299,6.255 76.961,18.764c22.662,12.51 40.43,29.914 53.302,52.214c12.872,22.3 19.308,47.591 19.308,75.873c0,28.283 -6.436,53.574 -19.308,75.873c-12.872,22.3 -30.639,39.795 -53.302,52.486c-22.662,12.691 -48.316,19.036 -76.961,19.036Zm0,-45.687c18.492,0 35.081,-4.261 49.766,-12.782c14.685,-8.521 26.198,-20.487 34.537,-35.897c8.34,-15.41 12.51,-33.087 12.51,-53.03c0,-19.943 -4.17,-37.619 -12.51,-53.03c-8.34,-15.41 -19.852,-27.285 -34.537,-35.625c-14.685,-8.34 -31.274,-12.51 -49.766,-12.51c-18.492,0 -35.081,4.17 -49.766,12.51c-14.685,8.34 -26.288,20.215 -34.809,35.625c-8.521,15.41 -12.782,33.087 -12.782,53.03c0,19.943 4.261,37.619 12.782,53.03c8.521,15.41 20.124,27.376 34.809,35.897c14.685,8.521 31.274,12.782 49.766,12.782Z" style="fill:#fff;"/><path d="M3110.26,581.311l0,403.571l-50.038,0l0,-45.687c-11.603,15.954 -26.288,28.101 -44.056,36.441c-17.767,8.34 -37.348,12.51 -58.741,12.51c-27.92,0 -52.939,-6.164 -75.058,-18.492c-22.118,-12.328 -39.432,-29.642 -51.942,-51.942c-12.51,-22.3 -18.764,-47.953 -18.764,-76.961c0,-29.008 6.255,-54.571 18.764,-76.689c12.51,-22.118 29.824,-39.342 51.942,-51.67c22.118,-12.328 47.138,-18.492 75.058,-18.492c20.668,0 39.704,3.898 57.109,11.694c17.405,7.796 31.909,19.308 43.512,34.537l0,-158.818l52.214,0Zm-148.484,361.147c18.13,0 34.628,-4.261 49.495,-12.782c14.866,-8.521 26.47,-20.487 34.809,-35.897c8.34,-15.41 12.51,-33.087 12.51,-53.03c0,-19.943 -4.17,-37.619 -12.51,-53.03c-8.34,-15.41 -19.943,-27.285 -34.809,-35.625c-14.866,-8.34 -31.365,-12.51 -49.495,-12.51c-18.492,0 -35.081,4.17 -49.766,12.51c-14.685,8.34 -26.288,20.215 -34.809,35.625c-8.521,15.41 -12.782,33.087 -12.782,53.03c0,19.943 4.261,37.619 12.782,53.03c8.521,15.41 20.124,27.376 34.809,35.897c14.685,8.521 31.274,12.782 49.766,12.782Z" style="fill:#fff;"/><path d="M3477.934,696.617l0,288.265l-49.495,0l0,-43.512c-10.515,14.866 -24.385,26.379 -41.608,34.537c-17.223,8.158 -35.988,12.238 -56.293,12.238c-38.435,0 -68.712,-10.606 -90.831,-31.818c-22.118,-21.212 -33.178,-52.486 -33.178,-93.822l0,-165.888l52.214,0l0,159.905c0,27.92 6.708,49.041 20.124,63.364c13.416,14.323 32.634,21.484 57.653,21.484c27.557,0 49.313,-8.34 65.268,-25.019c15.954,-16.679 23.931,-40.248 23.931,-70.706l0,-149.028l52.214,0Z" style="fill:#fff;"/><path d="M3703.107,988.145c-29.37,0 -55.568,-6.345 -78.593,-19.036c-23.025,-12.691 -41.064,-30.186 -54.118,-52.486c-13.054,-22.3 -19.58,-47.591 -19.58,-75.873c0,-28.283 6.527,-53.574 19.58,-75.873c13.054,-22.3 31.093,-39.704 54.118,-52.214c23.025,-12.51 49.223,-18.764 78.593,-18.764c26.107,0 49.404,5.258 69.891,15.773c20.487,10.515 36.35,25.744 47.591,45.687l-39.704,25.563c-9.065,-13.779 -20.305,-24.113 -33.722,-31.002c-13.416,-6.889 -28.283,-10.334 -44.599,-10.334c-18.855,0 -35.806,4.17 -50.854,12.51c-15.048,8.34 -26.832,20.215 -35.353,35.625c-8.521,15.41 -12.782,33.087 -12.782,53.03c0,20.305 4.261,38.163 12.782,53.574c8.521,15.41 20.305,27.285 35.353,35.625c15.048,8.34 31.999,12.51 50.854,12.51c16.317,0 31.183,-3.445 44.599,-10.334c13.416,-6.889 24.657,-17.223 33.722,-31.002l39.704,25.019c-11.241,19.943 -27.104,35.263 -47.591,45.959c-20.487,10.697 -43.784,16.045 -69.891,16.045Z" style="fill:#fff;"/></g><path d="M4053.958,968.021c-7.615,6.527 -17.042,11.512 -28.283,14.957c-11.241,3.445 -22.844,5.167 -34.809,5.167c-29.008,0 -51.489,-7.796 -67.443,-23.388c-15.954,-15.592 -23.931,-37.891 -23.931,-66.899l0,-158.274l-48.951,0l0,-42.968l48.951,0l0,-63.092l52.214,0l0,63.092l82.672,0l0,42.968l-82.672,0l0,156.098c0,15.592 3.898,27.557 11.694,35.897c7.796,8.34 18.946,12.51 33.45,12.51c15.954,0 29.552,-4.532 40.792,-13.597l16.317,37.529Z" style="fill:#fff;"/></g><g><path d="M2144.283,1454.808l-202.329,0l-41.88,95.182l-56.021,0l172.415,-380.727l53.846,0l172.959,380.727l-57.109,0l-41.88,-95.182Zm-19.036,-43.512l-82.128,-186.556l-82.128,186.556l164.257,0Z" style="fill:#fff;"/><g><path d="M2415.144,1553.253c-29.37,0 -55.568,-6.345 -78.593,-19.036c-23.025,-12.691 -41.064,-30.186 -54.118,-52.486c-13.054,-22.3 -19.58,-47.591 -19.58,-75.873c0,-28.283 6.527,-53.574 19.58,-75.873c13.054,-22.3 31.093,-39.704 54.118,-52.214c23.025,-12.51 49.223,-18.764 78.593,-18.764c26.107,0 49.404,5.258 69.891,15.773c20.487,10.515 36.35,25.744 47.591,45.687l-39.704,25.563c-9.065,-13.779 -20.305,-24.113 -33.722,-31.002c-13.416,-6.889 -28.283,-10.334 -44.599,-10.334c-18.855,0 -35.806,4.17 -50.854,12.51c-15.048,8.34 -26.832,20.215 -35.353,35.625c-8.521,15.41 -12.782,33.087 -12.782,53.03c0,20.305 4.261,38.163 12.782,53.574c8.521,15.41 20.305,27.285 35.353,35.625c15.048,8.34 31.999,12.51 50.854,12.51c16.317,0 31.183,-3.445 44.599,-10.334c13.416,-6.889 24.657,-17.223 33.722,-31.002l39.704,25.019c-11.241,19.943 -27.104,35.263 -47.591,45.959c-20.487,10.697 -43.784,16.045 -69.891,16.045Z" style="fill:#fff;"/><path d="M2705.04,1259.006c39.886,0 70.435,9.79 91.646,29.37c21.212,19.58 31.818,48.769 31.818,87.567l0,174.047l-49.495,0l0,-38.073c-8.702,13.416 -21.121,23.659 -37.257,30.73c-16.136,7.071 -35.263,10.606 -57.381,10.606c-32.271,0 -58.106,-7.796 -77.505,-23.388c-19.399,-15.592 -29.098,-36.078 -29.098,-61.46c0,-25.382 9.246,-45.778 27.739,-61.188c18.492,-15.41 47.863,-23.116 88.111,-23.116l82.672,0l0,-10.334c0,-22.481 -6.527,-39.704 -19.58,-51.67c-13.054,-11.966 -32.271,-17.949 -57.653,-17.949c-17.042,0 -33.722,2.81 -50.038,8.43c-16.317,5.62 -30.096,13.144 -41.336,22.572l-21.756,-39.161c14.866,-11.966 32.634,-21.121 53.302,-27.467c20.668,-6.345 42.605,-9.518 65.811,-9.518Zm-11.966,253.999c19.943,0 37.166,-4.442 51.67,-13.325c14.504,-8.884 25.019,-21.484 31.546,-37.801l0,-40.248l-80.497,0c-44.237,0 -66.355,14.866 -66.355,44.599c0,14.504 5.62,25.926 16.861,34.265c11.241,8.34 26.832,12.51 46.775,12.51Z" style="fill:#fff;"/><path d="M3198.898,1146.419l0,403.571l-50.038,0l0,-45.687c-11.603,15.954 -26.288,28.101 -44.056,36.441c-17.767,8.34 -37.348,12.51 -58.741,12.51c-27.92,0 -52.939,-6.164 -75.058,-18.492c-22.118,-12.328 -39.432,-29.642 -51.942,-51.942c-12.51,-22.3 -18.764,-47.953 -18.764,-76.961c0,-29.008 6.255,-54.571 18.764,-76.689c12.51,-22.118 29.824,-39.342 51.942,-51.67c22.118,-12.328 47.138,-18.492 75.058,-18.492c20.668,0 39.704,3.898 57.109,11.694c17.405,7.796 31.909,19.308 43.512,34.537l0,-158.818l52.214,0Zm-148.484,361.147c18.13,0 34.628,-4.261 49.495,-12.782c14.866,-8.521 26.47,-20.487 34.809,-35.897c8.34,-15.41 12.51,-33.087 12.51,-53.03c0,-19.943 -4.17,-37.619 -12.51,-53.03c-8.34,-15.41 -19.943,-27.285 -34.809,-35.625c-14.866,-8.34 -31.365,-12.51 -49.495,-12.51c-18.492,0 -35.081,4.17 -49.766,12.51c-14.685,8.34 -26.288,20.215 -34.809,35.625c-8.521,15.41 -12.782,33.087 -12.782,53.03c0,19.943 4.261,37.619 12.782,53.03c8.521,15.41 20.124,27.376 34.809,35.897c14.685,8.521 31.274,12.782 49.766,12.782Z" style="fill:#fff;"/><path d="M3558.413,1407.489c0,3.989 -0.363,9.246 -1.088,15.773l-233.875,0c3.263,25.382 14.413,45.778 33.45,61.188c19.036,15.41 42.696,23.116 70.978,23.116c34.447,0 62.185,-11.603 83.216,-34.809l28.826,33.722c-13.054,15.229 -29.28,26.832 -48.679,34.809c-19.399,7.977 -41.064,11.966 -64.996,11.966c-30.458,0 -57.472,-6.255 -81.041,-18.764c-23.569,-12.51 -41.789,-30.005 -54.662,-52.486c-12.872,-22.481 -19.308,-47.863 -19.308,-76.145c0,-27.92 6.255,-53.121 18.764,-75.602c12.51,-22.481 29.733,-39.976 51.67,-52.486c21.937,-12.51 46.684,-18.764 74.242,-18.764c27.557,0 52.123,6.255 73.698,18.764c21.575,12.51 38.435,30.005 50.582,52.486c12.147,22.481 18.221,48.225 18.221,77.233Zm-142.501,-104.428c-25.019,0 -45.959,7.615 -62.82,22.844c-16.861,15.229 -26.742,35.172 -29.642,59.829l184.925,0c-2.901,-24.294 -12.782,-44.146 -29.642,-59.557c-16.861,-15.41 -37.801,-23.116 -62.82,-23.116Z" style="fill:#fff;"/><path d="M3991.354,1259.006c36.26,0 64.996,10.515 86.208,31.546c21.212,21.031 31.818,52.214 31.818,93.55l0,165.888l-52.214,0l0,-159.905c0,-27.92 -6.436,-48.951 -19.308,-63.092c-12.872,-14.141 -31.274,-21.212 -55.205,-21.212c-26.47,0 -47.5,8.249 -63.092,24.747c-15.592,16.498 -23.388,40.158 -23.388,70.978l0,148.484l-52.214,0l0,-159.905c0,-27.92 -6.436,-48.951 -19.308,-63.092c-12.872,-14.141 -31.274,-21.212 -55.205,-21.212c-26.47,0 -47.5,8.249 -63.092,24.747c-15.592,16.498 -23.388,40.158 -23.388,70.978l0,148.484l-52.214,0l0,-288.265l50.038,0l0,42.968c10.515,-14.866 24.294,-26.198 41.336,-33.994c17.042,-7.796 36.441,-11.694 58.197,-11.694c22.481,0 42.424,4.532 59.829,13.597c17.405,9.065 30.821,22.3 40.248,39.704c10.878,-16.679 26.016,-29.733 45.415,-39.161c19.399,-9.428 41.245,-14.141 65.539,-14.141Z" style="fill:#fff;"/></g><path d="M4455.298,1261.725l-139.781,317.091c-12.328,29.37 -26.742,50.038 -43.24,62.004c-16.498,11.966 -36.35,17.949 -59.557,17.949c-14.141,0 -27.829,-2.266 -41.064,-6.799c-13.235,-4.532 -24.203,-11.15 -32.906,-19.852l22.3,-39.161c14.866,14.141 32.09,21.212 51.67,21.212c12.691,0 23.297,-3.354 31.818,-10.062c8.521,-6.708 16.226,-18.221 23.116,-34.537l9.246,-20.124l-127.272,-287.721l54.39,0l100.621,230.612l99.533,-230.612l51.126,0Z" style="fill:#fff;"/></g><path d="M1601.638,1367.292c0,191.85 -349.754,316.171 -511.333,384.758c-161.583,-68.588 -511.337,-192.908 -511.337,-384.758l0,-752.083l452.038,-123.458c38.638,-10.554 79.954,-10.554 118.596,0l452.037,123.458l0,752.083l-0.001,0Zm-457.408,-927.721c-35.283,-8.692 -72.571,-8.692 -107.854,0l-512.908,126.367l0,801.358c0,277.888 566.837,439.063 566.837,439.063c0,0 566.833,-161.175 566.833,-439.063l0,-801.358l-512.908,-126.367Z" style="fill:#fff;fill-rule:nonzero;"/><path d="M1124.569,1175.759l0,-56.225c0,-9.617 5.158,-18.5 13.517,-23.263l125.871,-71.742c6.771,-3.858 15.188,1.008 15.217,8.8l0.237,57.717c0.037,9.754 -5.229,18.758 -13.754,23.504l-125.958,70.1c-6.787,3.779 -15.129,-1.129 -15.129,-8.892m232.021,74.883l-232.021,135.35l0,-130.429c0,-4.421 2.408,-8.496 6.283,-10.625l181.221,-99.583c10.508,-5.371 17.004,-16.046 16.958,-27.842l-0.542,-133.333c-0.067,-11.021 -6.033,-21.283 -15.579,-26.792c-9.542,-5.504 -21.4,-5.55 -30.979,-0.088l-185.175,105.542c-13.379,7.621 -21.696,21.929 -21.696,37.333l0,294.342c-2.758,-0.975 -5.479,-2.112 -8.075,-3.592l-44.596,-25.483l0,-306.696c0,-13.121 7.025,-25.242 18.417,-31.763l189.033,-108.246c10.404,-5.958 15.9,-18.458 11.992,-29.792c-5.25,-15.229 -22.562,-21.188 -35.796,-13.633l-220.7,126.379c-7.708,4.421 -12.454,12.608 -12.454,21.488l0,313.975l-44.254,-25.287l0,-310.296c0,-13.125 7.021,-25.242 18.413,-31.767l189.033,-108.242c10.408,-5.958 15.904,-18.467 11.992,-29.804c-5.254,-15.221 -22.567,-21.167 -35.796,-13.621l-220.696,126.379c-7.708,4.417 -12.458,12.608 -12.458,21.483l0,317.575l-53.471,-30.554c-15.358,-8.775 -24.871,-25.075 -24.946,-42.762l-1.25,-277.963c-0.075,-17.688 9.283,-34.075 24.562,-42.988l240.1,-140.058c15.279,-8.913 34.154,-8.996 49.504,-0.221l241.346,137.9c15.358,8.779 24.871,25.079 24.946,42.767l1.25,277.962c0.075,17.688 -9.288,34.071 -24.567,42.983m-203.25,-727.112c-40.946,-11.963 -85.129,-11.963 -126.075,0l-414.996,121.237l0,722.525c0,163.983 304.633,275.85 478.033,351.888c173.396,-76.038 478.038,-187.904 478.038,-351.888l0,-722.525l-415,-121.237Z" style="fill:#fff;fill-rule:nonzero;"/></g></svg>